<svg width="32" height="32" viewBox="0 0 32 32" fill="none" xmlns="http://www.w3.org/2000/svg">
<path d="M16 2C17.4927 2 18.9283 2.55222 20.0099 3.54246C21.0915 4.53269 21.7363 5.88516 21.8109 7.32015L21.8182 7.60015L21.8196 17.0196L21.8996 17.1008C23.0647 18.3226 23.7874 19.8748 23.9593 21.5249L23.9898 21.9113L24 22.3006C23.9999 23.5365 23.6907 24.7543 23.0985 25.8509C22.5063 26.9476 21.6486 27.8909 20.5978 28.6013C19.547 29.3116 18.3339 29.768 17.0612 29.9319C15.7885 30.0959 14.4935 29.9626 13.2856 29.5432C12.0777 29.1239 10.9925 28.4308 10.1215 27.5226C9.25058 26.6144 8.61955 25.5178 8.28177 24.3254C7.94398 23.133 7.90936 21.8798 8.18083 20.6718C8.4523 19.4638 9.02189 18.3365 9.84145 17.385L10.1018 17.098L10.1804 17.0182L10.1818 7.60015C10.1817 6.2125 10.7168 4.87422 11.6835 3.84471C12.6501 2.81521 13.9795 2.16781 15.4138 2.028L15.7091 2.007L16 2ZM16 4.80008C15.2661 4.79985 14.5592 5.06665 14.021 5.54699C13.4829 6.02733 13.1532 6.68571 13.0982 7.39015L13.0909 7.60015V18.2306L12.6065 18.6479C11.8478 19.301 11.3099 20.1581 11.0623 21.1084C10.8147 22.0588 10.8687 23.0588 11.2175 23.9792C11.5662 24.8997 12.1937 25.6984 13.0187 26.2722C13.8438 26.846 14.8287 27.1686 15.8461 27.1983C16.8636 27.2279 17.8669 26.9633 18.7266 26.4386C19.5862 25.914 20.2627 25.1533 20.6687 24.2548C21.0747 23.3563 21.1916 22.3613 21.0042 21.3983C20.8168 20.4353 20.3337 19.5484 19.6175 18.8523L19.3949 18.6493L18.9105 18.232L18.9091 7.60015C18.9091 6.85753 18.6026 6.14532 18.057 5.6202C17.5115 5.09508 16.7715 4.80008 16 4.80008ZM16 10.4002C16.3858 10.4002 16.7557 10.5477 17.0285 10.8103C17.3013 11.0729 17.4545 11.429 17.4545 11.8003V19.0917C18.2202 19.4133 18.8475 19.9789 19.2309 20.6934C19.6142 21.4078 19.7303 22.2275 19.5597 23.0147C19.389 23.8018 18.9419 24.5084 18.2936 25.0156C17.6454 25.5228 16.8354 25.7997 16 25.7997C15.1646 25.7997 14.3546 25.5228 13.7064 25.0156C13.0581 24.5084 12.611 23.8018 12.4403 23.0147C12.2697 22.2275 12.3858 21.4078 12.7691 20.6934C13.1525 19.9789 13.7798 19.4133 14.5455 19.0917V11.8003C14.5455 11.429 14.6987 11.0729 14.9715 10.8103C15.2443 10.5477 15.6142 10.4002 16 10.4002Z" fill="#8AB6D7"/>
</svg>
