<svg width="32" height="32" viewBox="0 0 32 32" fill="none" xmlns="http://www.w3.org/2000/svg">
<path fill-rule="evenodd" clip-rule="evenodd" d="M14.9552 2.40316C15.5572 1.85731 16.478 1.86685 17.0686 2.42505C19.2071 4.44629 21.7139 6.92825 23.6894 9.61232C25.6425 12.266 27.2346 15.3261 27.2346 18.4889C27.2346 21.5279 26.0613 24.451 23.9595 26.6129C21.8562 28.7763 18.994 30 16.0001 30C13.0061 30 10.1439 28.7763 8.04065 26.6129C5.9388 24.451 4.7655 21.5279 4.7655 18.4889C4.7655 15.3377 6.30944 12.275 8.2504 9.60788C10.2123 6.912 12.7235 4.42658 14.9552 2.40316ZM10.7659 11.4385C8.96897 13.9077 7.87661 16.3141 7.87661 18.4889C7.87661 20.7306 8.74282 22.872 10.2713 24.4442C11.7983 26.0149 13.86 26.8889 16.0001 26.8889C18.1402 26.8889 20.2018 26.0149 21.7288 24.4442C23.2573 22.872 24.1235 20.7306 24.1235 18.4889C24.1235 16.3257 23.0055 13.9317 21.1837 11.4565C19.6775 9.40996 17.7977 7.44975 15.9816 5.69005C14.1321 7.43218 12.2549 9.39239 10.7659 11.4385Z" fill="#8AB6D7"/>
<path fill-rule="evenodd" clip-rule="evenodd" d="M10.7707 16.8533C11.5888 16.7225 12.3579 17.2796 12.4887 18.0976C12.7593 19.7901 13.4142 20.9448 14.9906 21.9845C15.6821 22.4406 15.873 23.371 15.4168 24.0626C14.9607 24.7541 14.0303 24.945 13.3388 24.4888C11.01 22.9528 9.91998 21.0332 9.52636 18.5713C9.39557 17.7532 9.95269 16.9841 10.7707 16.8533Z" fill="#8AB6D7"/>
</svg>
